<svg width="257" height="47" viewBox="0 0 257 47" fill="none" xmlns="http://www.w3.org/2000/svg">
<path d="M51.4072 5.39991H36.6654L9.71985 25.0016V5.39991H0V43.1993H9.71985V35.9634L21.3297 27.4856L37.9614 43.1993H51.4072L28.5116 22.1937L51.4072 5.39991Z" fill="#014223"/>
<path d="M73.1203 10.8538C66.4784 10.8538 60.1065 12.0418 53.6266 14.1478L56.9206 20.8977C63.4545 18.9537 68.5304 18.5757 72.6883 18.5757C77.0083 18.5757 84.7842 19.0617 84.7842 25.1096C80.6262 23.7056 75.6043 22.8416 70.1504 22.8416C60.0525 22.8416 50.9807 25.4336 50.9807 33.6955C50.9807 40.8774 56.5426 43.7393 65.4525 43.7393C72.9584 43.7393 79.1682 42.0113 84.7842 39.2574V43.1993H94.072V27.1616C93.964 15.1198 86.4041 10.8538 73.1203 10.8538ZM84.7842 33.3175C80.0322 35.3694 73.1203 36.9354 68.0984 36.9354C63.2925 36.9354 60.2145 36.6654 60.2145 33.3175C60.2145 30.0775 64.3725 28.8895 71.2844 28.8895C77.1703 28.8895 81.5442 29.8075 84.7842 30.8335V33.3175Z" fill="#014223"/>
<path d="M123.731 10.8538C117.792 10.8538 112.176 12.5278 107.424 16.7937V11.3938H98.1899V43.1993H107.424V24.1376C113.04 19.7637 118.98 18.5757 124.163 18.5757C126.863 18.5757 129.293 18.8997 132.317 19.6557V11.9338C130.157 11.3938 127.511 10.8538 123.731 10.8538Z" fill="#014223"/>
<path d="M136.105 0V43.1993H145.339V0H136.105Z" fill="#014223"/>
<path d="M170.994 10.8538C164.352 10.8538 157.98 12.0418 151.5 14.1478L154.794 20.8977C161.328 18.9537 166.404 18.5757 170.562 18.5757C174.882 18.5757 182.658 19.0617 182.658 25.1096C178.5 23.7056 173.478 22.8416 168.024 22.8416C157.926 22.8416 148.854 25.4336 148.854 33.6955C148.854 40.8774 154.416 43.7393 163.326 43.7393C170.832 43.7393 177.042 42.0113 182.658 39.2574V43.1993H191.945V27.1616C191.837 15.1198 184.278 10.8538 170.994 10.8538ZM182.658 33.3175C177.906 35.3694 170.994 36.9354 165.972 36.9354C161.166 36.9354 158.088 36.6654 158.088 33.3175C158.088 30.0775 162.246 28.8895 169.158 28.8895C175.044 28.8895 179.418 29.8075 182.658 30.8335V33.3175Z" fill="#014223"/>
<path d="M237.404 16.7817C237.457 17.6074 237.356 18.4358 237.108 19.225L233.42 30.6778H216.613L211.542 46.2467C211.5 46.3809 211.424 46.5021 211.322 46.5986C211.22 46.695 211.094 46.7634 210.958 46.7972C210.821 46.831 210.679 46.829 210.543 46.7914C210.408 46.7538 210.284 46.6819 210.185 46.5826L201.887 38.4096C201.583 38.1107 201.368 37.733 201.267 37.3188C201.165 36.9046 201.182 36.4704 201.314 36.065L201.972 34.0893L208.091 15.2472C208.143 15.0759 208.196 14.9047 208.262 14.7401C208.765 13.4875 209.632 12.4142 210.75 11.6584C211.869 10.9025 213.188 10.4987 214.538 10.4988H230.344C233.96 10.4988 237.174 13.1792 237.404 16.7817Z" fill="url(#paint0_linear_1355_1035)"/>
<path d="M256.812 6.78495C256.661 7.38426 256.562 7.85186 256.384 8.41824L251.115 24.6655L250.536 26.4569C250.262 27.3274 249.791 28.123 249.159 28.7817C248.358 29.653 247.311 30.2595 246.156 30.5203C245.713 30.6299 245.257 30.683 244.8 30.6784H219.326C218.233 30.6905 217.145 30.5486 216.092 30.2569C214.688 29.6943 213.549 28.6206 212.905 27.2518C212.261 25.8831 212.16 24.3212 212.621 22.8807L216.092 12.1788L218.476 4.84213C218.529 4.69065 218.588 4.54577 218.634 4.38771C219.083 3.27554 219.854 2.32278 220.847 1.65159C221.841 0.980407 223.013 0.621398 224.212 0.620605L251.214 0.620605C255.521 0.620605 257.675 3.33397 256.812 6.78495Z" fill="url(#paint1_linear_1355_1035)"/>
<path opacity="0.8" d="M237.404 16.7817C237.173 13.1792 233.959 10.4988 230.35 10.4988H216.645L216.092 12.1913L212.621 22.8802C212.16 24.3206 212.261 25.8826 212.905 27.2513C213.549 28.62 214.688 29.6938 216.092 30.2563C217.143 30.5592 218.232 30.7121 219.326 30.7107H233.419L237.107 19.2579C237.36 18.4583 237.461 17.6184 237.404 16.7817V16.7817Z" fill="url(#paint2_linear_1355_1035)"/>
<path d="M227.611 27.3124C227.61 27.8508 227.481 28.3812 227.235 28.8601C227.178 28.978 227.109 29.0904 227.031 29.196C224.507 33.5273 220.814 37.0604 216.375 39.3909C215.383 39.932 214.353 40.4008 213.293 40.7936C212.103 41.2508 210.879 41.6119 209.632 41.8737C207.921 42.265 206.176 42.4856 204.422 42.5323C205.487 42.4425 206.515 42.0999 207.421 41.5329C208.327 40.9659 209.085 40.1909 209.632 39.2723C209.985 38.7142 210.239 38.0992 210.382 37.4546C210.529 36.9182 210.602 36.3643 210.6 35.8082C210.597 35.2255 210.52 34.6455 210.369 34.0827C210.083 32.9704 209.516 31.9502 208.723 31.1199C207.93 30.2896 206.936 29.677 205.838 29.3409C207.585 29.9408 209.418 30.2501 211.265 30.2563C214.701 30.2641 218.056 29.2132 220.874 27.2466C221.92 26.5238 222.88 25.6818 223.732 24.7374C223.755 24.7039 223.781 24.673 223.811 24.6452C223.967 24.4877 224.152 24.3629 224.357 24.2781C224.562 24.1933 224.781 24.1502 225.003 24.1512C225.23 24.1448 225.455 24.1899 225.661 24.2829C225.668 24.28 225.674 24.2785 225.681 24.2785C225.688 24.2785 225.695 24.28 225.701 24.2829C225.796 24.3219 225.886 24.3704 225.971 24.4278C226.471 24.7255 226.885 25.1478 227.172 25.6535C227.459 26.1591 227.611 26.7308 227.611 27.3124V27.3124Z" fill="url(#paint3_linear_1355_1035)"/>
<defs>
<linearGradient id="paint0_linear_1355_1035" x1="207.333" y1="44.508" x2="227.789" y2="11.3681" gradientUnits="userSpaceOnUse">
<stop stop-color="#E78400"/>
<stop offset="0.15" stop-color="#EB9523"/>
<stop offset="0.56" stop-color="#F6C381"/>
<stop offset="0.85" stop-color="#FCE0BD"/>
<stop offset="0.99" stop-color="#FFEBD4"/>
</linearGradient>
<linearGradient id="paint1_linear_1355_1035" x1="215.921" y1="34.7089" x2="250.213" y2="-0.479227" gradientUnits="userSpaceOnUse">
<stop stop-color="#00C498"/>
<stop offset="1" stop-color="#1BDD93"/>
</linearGradient>
<linearGradient id="paint2_linear_1355_1035" x1="211.917" y1="29.848" x2="239.979" y2="10.0246" gradientUnits="userSpaceOnUse">
<stop stop-color="#25A244"/>
<stop offset="0.45" stop-color="#79CD8D"/>
<stop offset="1" stop-color="#D9FFE1"/>
</linearGradient>
<linearGradient id="paint3_linear_1355_1035" x1="207.201" y1="41.6432" x2="223.87" y2="19.6268" gradientUnits="userSpaceOnUse">
<stop stop-color="#E78400"/>
<stop offset="0.15" stop-color="#EB9523"/>
<stop offset="0.56" stop-color="#F6C381"/>
<stop offset="0.85" stop-color="#FCE0BD"/>
<stop offset="0.99" stop-color="#FFEBD4"/>
</linearGradient>
</defs>
</svg>
