<svg width="16" height="16" viewBox="0 0 16 16" fill="none" xmlns="http://www.w3.org/2000/svg">
<path d="M13.6466 1.33333H2.35329C2.22634 1.33157 2.10029 1.35483 1.98233 1.40179C1.86438 1.44874 1.75683 1.51848 1.66582 1.607C1.57482 1.69553 1.50215 1.80112 1.45195 1.91774C1.40176 2.03435 1.37503 2.15972 1.37329 2.28666V13.7133C1.37503 13.8403 1.40176 13.9656 1.45195 14.0823C1.50215 14.1989 1.57482 14.3045 1.66582 14.393C1.75683 14.4815 1.86438 14.5512 1.98233 14.5982C2.10029 14.6452 2.22634 14.6684 2.35329 14.6667H13.6466C13.7736 14.6684 13.8996 14.6452 14.0176 14.5982C14.1355 14.5512 14.2431 14.4815 14.3341 14.393C14.4251 14.3045 14.4978 14.1989 14.548 14.0823C14.5982 13.9656 14.6249 13.8403 14.6266 13.7133V2.28666C14.6249 2.15972 14.5982 2.03435 14.548 1.91774C14.4978 1.80112 14.4251 1.69553 14.3341 1.607C14.2431 1.51848 14.1355 1.44874 14.0176 1.40179C13.8996 1.35483 13.7736 1.33157 13.6466 1.33333ZM5.39329 12.4933H3.39329V6.49333H5.39329V12.4933ZM4.39329 5.65333C4.11747 5.65333 3.85294 5.54376 3.6579 5.34872C3.46286 5.15368 3.35329 4.88916 3.35329 4.61333C3.35329 4.3375 3.46286 4.07298 3.6579 3.87794C3.85294 3.6829 4.11747 3.57333 4.39329 3.57333C4.53975 3.55672 4.68808 3.57123 4.82854 3.61592C4.96901 3.6606 5.09845 3.73446 5.2084 3.83264C5.31834 3.93082 5.40631 4.05112 5.46654 4.18565C5.52677 4.32019 5.5579 4.46593 5.5579 4.61333C5.5579 4.76073 5.52677 4.90647 5.46654 5.04101C5.40631 5.17554 5.31834 5.29584 5.2084 5.39402C5.09845 5.4922 4.96901 5.56605 4.82854 5.61074C4.68808 5.65543 4.53975 5.66994 4.39329 5.65333ZM12.6066 12.4933H10.6066V9.27333C10.6066 8.46666 10.32 7.94 9.59329 7.94C9.3684 7.94164 9.14942 8.01218 8.96585 8.14211C8.78228 8.27204 8.64295 8.45511 8.56663 8.66666C8.51445 8.82336 8.49185 8.98838 8.49996 9.15333V12.4867H6.49996C6.49996 12.4867 6.49996 7.03333 6.49996 6.48666H8.49996V7.33333C8.68164 7.01807 8.9459 6.75834 9.26425 6.58213C9.58261 6.40592 9.943 6.3199 10.3066 6.33333C11.64 6.33333 12.6066 7.19333 12.6066 9.04V12.4933Z" fill="#E78400"/>
</svg>
